<svg
	aria-hidden="true"
	class="ee-svg"
	fill="currentColor"
	focusable="false"
	width="1.25em"
	height="1.25em"
	viewBox="0 0 24 24"
>
	<path d="M18.571 6c-2.853 0-4.608 2.164-6.571 4.201-1.963-2.037-3.718-4.201-6.571-4.201-3.197 0-5.429 2.455-5.429 6s2.232 6 5.429 6c2.854 0 4.608-2.164 6.571-4.201 1.963 2.037 3.718 4.201 6.571 4.201 3.197 0 5.429-2.455 5.429-6s-2.232-6-5.429-6zm-13.142 10c-2.114 0-3.479-1.578-3.479-4s1.366-4 3.479-4c2.311 0 3.719 2.05 5.365 4-1.647 1.95-3.055 4-5.365 4zm13.142 0c-2.311 0-3.719-2.05-5.365-4 1.646-1.95 3.054-4 5.365-4 2.114 0 3.479 1.578 3.479 4s-1.365 4-3.479 4z"/>
</svg>